<mxfile host="65bd71144e" modified="2020-10-21T03:01:02.986Z" agent="5.0 (Windows NT 10.0; Win64; x64) AppleWebKit/537.36 (KHTML, like Gecko) Code/1.50.1 Chrome/83.0.4103.122 Electron/9.2.1 Safari/537.36" etag="M_VtBhb-Z9lVYypbPIrg" version="13.6.5">
    <diagram id="3mR3qd5HLXd8aL_vuorG" name="ページ1">
        <mxGraphModel dx="1022" dy="587" grid="1" gridSize="10" guides="1" tooltips="1" connect="1" arrows="1" fold="1" page="1" pageScale="1" pageWidth="827" pageHeight="1169" math="0" shadow="0">
            <root>
                <mxCell id="0"/>
                <mxCell id="1" parent="0"/>
                <mxCell id="VZWWZLJk8qB1Wz1YRbqK-1" value="" style="endArrow=classic;html=1;" parent="1" edge="1">
                    <mxGeometry width="50" height="50" relative="1" as="geometry">
                        <mxPoint x="192" y="290" as="sourcePoint"/>
                        <mxPoint x="240" y="290" as="targetPoint"/>
                    </mxGeometry>
                </mxCell>
                <mxCell id="VZWWZLJk8qB1Wz1YRbqK-2" value="" style="group" parent="1" vertex="1" connectable="0">
                    <mxGeometry x="210" y="240" width="160" height="110" as="geometry"/>
                </mxCell>
                <mxCell id="VZWWZLJk8qB1Wz1YRbqK-3" value="" style="verticalLabelPosition=bottom;verticalAlign=top;html=1;shape=mxgraph.basic.8_point_star;strokeColor=#000000;strokeWidth=1;" parent="VZWWZLJk8qB1Wz1YRbqK-2" vertex="1">
                    <mxGeometry width="150" height="100" as="geometry"/>
                </mxCell>
                <mxCell id="VZWWZLJk8qB1Wz1YRbqK-4" value="&lt;font style=&quot;font-size: 11px&quot;&gt;「登録」ボタン&lt;br&gt;を押す&lt;/font&gt;" style="text;strokeColor=none;fillColor=none;html=1;fontSize=24;fontStyle=1;verticalAlign=middle;align=center;" parent="VZWWZLJk8qB1Wz1YRbqK-2" vertex="1">
                    <mxGeometry x="30" y="35" width="90" height="35" as="geometry"/>
                </mxCell>
                <mxCell id="VZWWZLJk8qB1Wz1YRbqK-5" value="" style="endArrow=classic;html=1;" parent="VZWWZLJk8qB1Wz1YRbqK-2" edge="1">
                    <mxGeometry width="50" height="50" relative="1" as="geometry">
                        <mxPoint x="120" y="49.5" as="sourcePoint"/>
                        <mxPoint x="166" y="50" as="targetPoint"/>
                    </mxGeometry>
                </mxCell>
                <mxCell id="VZWWZLJk8qB1Wz1YRbqK-6" value="アカウント登録&lt;br&gt;処理をする" style="ellipse;whiteSpace=wrap;html=1;strokeColor=#000000;strokeWidth=1;" parent="1" vertex="1">
                    <mxGeometry x="380" y="250" width="120" height="80" as="geometry"/>
                </mxCell>
                <mxCell id="VZWWZLJk8qB1Wz1YRbqK-8" value="アカウント登録画面" style="swimlane;fontStyle=0;childLayout=stackLayout;horizontal=1;startSize=26;horizontalStack=0;resizeParent=1;resizeParentMax=0;resizeLast=0;collapsible=1;marginBottom=0;align=center;fontSize=14;strokeColor=#000000;strokeWidth=1;" parent="1" vertex="1">
                    <mxGeometry x="30" y="210" width="160" height="250" as="geometry"/>
                </mxCell>
                <mxCell id="VZWWZLJk8qB1Wz1YRbqK-9" value="表示&#10;・タイトル&#10;" style="text;strokeColor=none;fillColor=none;spacingLeft=4;spacingRight=4;overflow=hidden;rotatable=0;points=[[0,0.5],[1,0.5]];portConstraint=eastwest;fontSize=12;" parent="VZWWZLJk8qB1Wz1YRbqK-8" vertex="1">
                    <mxGeometry y="26" width="160" height="54" as="geometry"/>
                </mxCell>
                <mxCell id="VZWWZLJk8qB1Wz1YRbqK-10" value="入力&#10;・アカウントID&#10;・アカウント名&#10;・メールアドレス&#10;・パスワード&#10;・生年月日&#10;・電話番号&#10;&#10;" style="text;strokeColor=none;fillColor=none;spacingLeft=4;spacingRight=4;overflow=hidden;rotatable=0;points=[[0,0.5],[1,0.5]];portConstraint=eastwest;fontSize=12;" parent="VZWWZLJk8qB1Wz1YRbqK-8" vertex="1">
                    <mxGeometry y="80" width="160" height="120" as="geometry"/>
                </mxCell>
                <mxCell id="VZWWZLJk8qB1Wz1YRbqK-11" value="操作&#10;・登録ボタンを押す&#10;" style="text;strokeColor=none;fillColor=none;spacingLeft=4;spacingRight=4;overflow=hidden;rotatable=0;points=[[0,0.5],[1,0.5]];portConstraint=eastwest;fontSize=12;" parent="VZWWZLJk8qB1Wz1YRbqK-8" vertex="1">
                    <mxGeometry y="200" width="160" height="50" as="geometry"/>
                </mxCell>
                <mxCell id="VZWWZLJk8qB1Wz1YRbqK-12" value="" style="endArrow=classic;html=1;exitX=1;exitY=0.5;exitDx=0;exitDy=0;" parent="1" source="VZWWZLJk8qB1Wz1YRbqK-6" edge="1">
                    <mxGeometry width="50" height="50" relative="1" as="geometry">
                        <mxPoint x="670" y="210" as="sourcePoint"/>
                        <mxPoint x="540" y="290" as="targetPoint"/>
                    </mxGeometry>
                </mxCell>
                <mxCell id="VZWWZLJk8qB1Wz1YRbqK-14" value="入力データが&lt;br&gt;正しいか" style="rhombus;whiteSpace=wrap;html=1;" parent="1" vertex="1">
                    <mxGeometry x="540" y="252.5" width="100" height="75" as="geometry"/>
                </mxCell>
                <mxCell id="VZWWZLJk8qB1Wz1YRbqK-17" value="YES" style="text;html=1;strokeColor=none;fillColor=none;align=center;verticalAlign=middle;whiteSpace=wrap;rounded=0;" parent="1" vertex="1">
                    <mxGeometry x="640" y="270" width="40" height="20" as="geometry"/>
                </mxCell>
                <mxCell id="VZWWZLJk8qB1Wz1YRbqK-18" value="" style="endArrow=classic;html=1;exitX=0.5;exitY=1;exitDx=0;exitDy=0;entryX=0.45;entryY=1.06;entryDx=0;entryDy=0;entryPerimeter=0;" parent="1" source="VZWWZLJk8qB1Wz1YRbqK-14" target="VZWWZLJk8qB1Wz1YRbqK-11" edge="1">
                    <mxGeometry width="50" height="50" relative="1" as="geometry">
                        <mxPoint x="700" y="430" as="sourcePoint"/>
                        <mxPoint x="20" y="470" as="targetPoint"/>
                        <Array as="points">
                            <mxPoint x="590" y="490"/>
                            <mxPoint x="102" y="490"/>
                        </Array>
                    </mxGeometry>
                </mxCell>
                <mxCell id="VZWWZLJk8qB1Wz1YRbqK-19" value="NO" style="text;html=1;strokeColor=none;fillColor=none;align=center;verticalAlign=middle;whiteSpace=wrap;rounded=0;" parent="1" vertex="1">
                    <mxGeometry x="550" y="340" width="40" height="20" as="geometry"/>
                </mxCell>
                <mxCell id="VZWWZLJk8qB1Wz1YRbqK-27" value="アカウントテーブルへ情報を入れる" style="ellipse;whiteSpace=wrap;html=1;strokeColor=#000000;strokeWidth=1;" parent="1" vertex="1">
                    <mxGeometry x="700" y="250" width="120" height="80" as="geometry"/>
                </mxCell>
                <mxCell id="VZWWZLJk8qB1Wz1YRbqK-28" value="" style="endArrow=classic;html=1;exitX=0.5;exitY=1;exitDx=0;exitDy=0;entryX=0.501;entryY=0.013;entryDx=0;entryDy=0;entryPerimeter=0;" parent="1" source="VZWWZLJk8qB1Wz1YRbqK-27" target="4" edge="1">
                    <mxGeometry width="50" height="50" relative="1" as="geometry">
                        <mxPoint x="550" y="420" as="sourcePoint"/>
                        <mxPoint x="700" y="380" as="targetPoint"/>
                    </mxGeometry>
                </mxCell>
                <mxCell id="VZWWZLJk8qB1Wz1YRbqK-29" value="" style="endArrow=classic;html=1;exitX=0;exitY=1;exitDx=0;exitDy=0;entryX=0;entryY=0.5;entryDx=0;entryDy=0;" parent="1" source="VZWWZLJk8qB1Wz1YRbqK-17" target="VZWWZLJk8qB1Wz1YRbqK-27" edge="1">
                    <mxGeometry width="50" height="50" relative="1" as="geometry">
                        <mxPoint x="550" y="420" as="sourcePoint"/>
                        <mxPoint x="600" y="370" as="targetPoint"/>
                    </mxGeometry>
                </mxCell>
                <mxCell id="VZWWZLJk8qB1Wz1YRbqK-30" value="" style="endArrow=classic;html=1;" parent="1" edge="1">
                    <mxGeometry width="50" height="50" relative="1" as="geometry">
                        <mxPoint x="820" y="290" as="sourcePoint"/>
                        <mxPoint x="910" y="290" as="targetPoint"/>
                    </mxGeometry>
                </mxCell>
                <mxCell id="2" value="ログイン画面" style="swimlane;fontStyle=0;childLayout=stackLayout;horizontal=1;startSize=26;horizontalStack=0;resizeParent=1;resizeParentMax=0;resizeLast=0;collapsible=1;marginBottom=0;align=center;fontSize=14;" parent="1" vertex="1">
                    <mxGeometry x="910" y="210" width="220" height="250" as="geometry"/>
                </mxCell>
                <mxCell id="3" value="表示&#10;・ID入力フォーム&#10;・パスワード入力フォーム&#10;・サインインボタン&#10;・「アカウント作成」リンク&#10;・「パスワードを忘れた場合」リンク&#10;入力&#10;・アカウントID&#10;・アカウントパスワード&#10;操作&#10;・サインインボタンを押す&#10;・「アカウント作成」&#10;リンクを押す&#10;・「パスワードを忘れた場合」&#10;リンクを押す" style="text;strokeColor=none;fillColor=none;spacingLeft=4;spacingRight=4;overflow=hidden;rotatable=0;points=[[0,0.5],[1,0.5]];portConstraint=eastwest;fontSize=12;" parent="2" vertex="1">
                    <mxGeometry y="26" width="220" height="224" as="geometry"/>
                </mxCell>
                <mxCell id="4" value="" style="shape=cylinder2;whiteSpace=wrap;html=1;boundedLbl=1;backgroundOutline=1;size=15;" parent="1" vertex="1">
                    <mxGeometry x="640" y="380" width="110" height="80" as="geometry"/>
                </mxCell>
                <mxCell id="5" value="アカウントテーブル" style="text;html=1;strokeColor=none;fillColor=none;align=center;verticalAlign=middle;whiteSpace=wrap;rounded=0;" parent="1" vertex="1">
                    <mxGeometry x="662.5" y="420" width="65" height="20" as="geometry"/>
                </mxCell>
            </root>
        </mxGraphModel>
    </diagram>
</mxfile>